<svg xmlns="http://www.w3.org/2000/svg" width="62.592" height="12.347" viewBox="0 0 62.592 12.347">
  <g id="udn_logo_white" transform="translate(0)">
    <g id="Group_489" data-name="Group 489" transform="translate(0 0)">
      <g id="Group_486" data-name="Group 486">
        <path id="Path_1021" data-name="Path 1021" d="M32.393,40.938c-.267-.019-2.233-.038-5.248-.038-3.091,0-4.962,0-5.229.019a1,1,0,0,0-.649.248.946.946,0,0,0-.248.63C21,42.064,21,44.049,21,47.064s0,5,.019,5.267a.946.946,0,0,0,.248.63,1,1,0,0,0,.649.248c.267.019,2.214.038,5.229.038s4.962-.019,5.229-.038a1,1,0,0,0,.649-.248.946.946,0,0,0,.248-.63c.019-.248.019-2.252.019-5.267s0-5-.019-5.267a.946.946,0,0,0-.248-.63A.9.9,0,0,0,32.393,40.938Z" transform="translate(-21 -40.9)" fill="#f46c00"/>
        <path id="Path_1022" data-name="Path 1022" d="M38.745,55.238c-.477-.019-1.107-.038-2.214-.038s-1.737,0-2.214.038a1.767,1.767,0,0,0-1.183.439,1.639,1.639,0,0,0-.515,1.221c0,.5-.019.8-.019,1.6s0,1.126.019,1.6a1.639,1.639,0,0,0,.515,1.221,1.981,1.981,0,0,0,1.183.439c.477.019,1.107.038,2.214.038s1.737-.019,2.214-.038a1.767,1.767,0,0,0,1.183-.439,1.639,1.639,0,0,0,.515-1.221c0-.5.019-.8.019-1.6s0-1.107-.019-1.6a1.639,1.639,0,0,0-.515-1.221A1.767,1.767,0,0,0,38.745,55.238Z" transform="translate(-30.386 -52.471)" fill="#fff"/>
        <path id="Path_1023" data-name="Path 1023" d="M60.124,62.5H59.8v2.328h.324c.286,0,.363-.191.363-.42V62.9A.333.333,0,0,0,60.124,62.5Z" transform="translate(-52.396 -58.378)"/>
        <path id="Path_1024" data-name="Path 1024" d="M49.4,80.8a.686.686,0,0,0,.725.706.676.676,0,0,0,.725-.706Z" transform="translate(-43.98 -73.186)"/>
        <g id="Group_485" data-name="Group 485" transform="translate(4.217 4.122)">
          <path id="Path_1025" data-name="Path 1025" d="M43.825,64.446c0,.21-.1.4-.363.4s-.363-.191-.363-.4V62.5h.706v1.946Z" transform="translate(-43.1 -62.5)"/>
        </g>
      </g>
      <g id="Group_488" data-name="Group 488" transform="translate(14.14 1.679)">
        <path id="Path_1026" data-name="Path 1026" d="M303.024,56.388c.038-.229.076-.572.134-1.05l.744.057q-.057.744-.115,1.145a9.981,9.981,0,0,1-.286,1.2l-.8-.114C302.872,57.037,302.986,56.617,303.024,56.388Zm3.015-5.1a17.182,17.182,0,0,1-1.622,2.614l.992-.057c-.057-.21-.115-.4-.172-.592l.668-.1a10,10,0,0,1,.477,1.527l-.782.114c-.019-.1-.019-.172-.038-.286l-.534.057v3.912h-.782V54.652l-1.3.1-.057-.706.515-.038.687-.916a10.992,10.992,0,0,0-1.221-1.259l.439-.63a1.091,1.091,0,0,0,.153.134,10.93,10.93,0,0,0,.859-1.431l.687.305A18.337,18.337,0,0,1,304,51.866q.258.258.515.572c.286-.477.553-.954.8-1.469Zm-.553,5.782c0-.5-.038-1.069-.1-1.717l.687-.019c.076.821.115,1.412.115,1.717Zm1.03,1.412V50.224h5.019v7.4a.835.835,0,0,1-.935.954h-.134a.727.727,0,0,1-.744-.611l-.038-.191h.668c.267,0,.4-.134.4-.42V50.988h-3.435v7.5Zm3.969-3.74h-1.737v1.412c0,.1.038.134.134.134h1.431v.763h-1.832c-.363,0-.534-.191-.534-.553V54.728h-.363v-.687h1.107V53.2h-1.107v-.687h.5l-.363-1.088.744-.114.363,1.221h.439l.4-1.183.763.1-.4,1.088h.439v.687h-1.03v.84h1.03v.687Z" transform="translate(-263.084 -49.862)" fill="#fff"/>
        <path id="Path_1027" data-name="Path 1027" d="M201.624,56.164v2.4h-.782V56.336a1.225,1.225,0,0,1-.191.248,10.6,10.6,0,0,1-1.317,1.317l-.534-.553a9.154,9.154,0,0,0,1.221-1.2,7.04,7.04,0,0,0,.649-.916h-1.6v-.763h1.756v-.8H199.3V52.9h.649l-.324-1.317h-.477v-.763h1.7v-.8h.782v.8h1.641v.763h-.439l-.343,1.317h.592v.763h-1.45v.8h1.641v.763h-1.641v.057A8.516,8.516,0,0,0,203,56.393l-.324.744A9.613,9.613,0,0,1,201.624,56.164Zm.4-4.58H200.46l.305,1.317h.935Zm3.893,7.023V53.74h-1.412v.076a16.064,16.064,0,0,1-.191,2.729,6.463,6.463,0,0,1-.744,2.061l-.744-.363a6.37,6.37,0,0,0,.706-1.966,14.936,14.936,0,0,0,.191-2.443V50.611A18.666,18.666,0,0,0,207.006,50l.42.649a25.867,25.867,0,0,1-2.92.63v1.7h3.244v.763H206.7v4.1a.742.742,0,0,1-.763.763Z" transform="translate(-179.011 -49.943)" fill="#fff"/>
        <path id="Path_1028" data-name="Path 1028" d="M253.3,59.458V51.1h3.588v3.13h-2.805v5.248H253.3Zm.8-7.118h2V51.73h-2.023v.611Zm2,.668h-2.023v.572h2.023Zm-1.221,1.66h5.076v.649h-.649v2.6l.649-.057.057.592c-.229.019-.458.057-.706.1v.763h-.782v-.687c-1.2.114-2.462.191-3.817.248l-.038-.668c.267-.019.534-.019.8-.038V55.317h-.611v-.649Zm3.645.649H256.3v.572h2.252v-.572Zm0,1.145H256.3v.515h2.252v-.515Zm0,1.088H256.3v.592c.763-.057,1.508-.1,2.252-.153V57.55Zm3.015-6.45v7.71a.658.658,0,0,1-.744.744h-.305a.727.727,0,0,1-.744-.611l-.038-.191h.782a.241.241,0,0,0,.267-.267V54.211h-2.805V51.1Zm-2.786,1.24h2.023V51.73h-2.023Zm2,.668h-2.023v.572h2.023Z" transform="translate(-223.111 -50.833)" fill="#fff"/>
        <g id="Group_487" data-name="Group 487">
          <path id="Path_1029" data-name="Path 1029" d="M98.077,50.988v7.5h-.782V56.942c-.63.191-1.3.363-2.023.534l-.172-.763a3.911,3.911,0,0,1,.458-.1V50.988h-.229v-.763h3.034v.763Zm-1.717,0v1.279h.935V50.988Zm0,1.966v1.24h.935v-1.24Zm0,1.927v1.565c.324-.076.649-.153.935-.229V54.881Zm4.714-3.645A9.555,9.555,0,0,1,99.7,53.278l.63-.076c-.038-.134-.076-.248-.114-.4l.611-.1a8.133,8.133,0,0,1,.382,1.221l-.668.1c-.019-.076-.019-.134-.038-.191l-1.927.248a3.544,3.544,0,0,0-.115-.649l.382-.057c.248-.305.5-.592.706-.9a8.727,8.727,0,0,0-1.088-1.126l.382-.572a1.722,1.722,0,0,1,.191.172,8.652,8.652,0,0,0,.649-1.05l.611.286a8.992,8.992,0,0,1-.763,1.24c.134.153.267.305.42.458.21-.343.4-.668.572-1.011Zm-.114,3.091v1.107a4.043,4.043,0,0,1-.363,1.813,3.5,3.5,0,0,1-1.3,1.374l-.592-.553a2.9,2.9,0,0,0,1.221-1.336H98.707v-2.29h.782v1.584h.649a5.816,5.816,0,0,0,.038-.611V54.308h.782Zm2.443-.5-2.023.286a3.545,3.545,0,0,0-.114-.649l.363-.038c.229-.286.458-.592.668-.859a9.725,9.725,0,0,0-1.107-1.2l.4-.553a1.337,1.337,0,0,0,.191.153,5.132,5.132,0,0,0,.592-1.05l.63.267a9.209,9.209,0,0,1-.763,1.259c.153.172.286.343.439.515a11.242,11.242,0,0,0,.553-1.05l.573.324a10.184,10.184,0,0,1-1.3,2.061l.687-.1c-.038-.134-.1-.267-.153-.42l.592-.153a8.169,8.169,0,0,1,.5,1.259l-.668.153C103.439,53.965,103.42,53.888,103.4,53.831Zm.4.611v2.366h-1.469v1.03a.742.742,0,0,1-.763.763h-.019V54.327h.782v1.794h.687v-1.66h.782Z" transform="translate(-95.1 -49.862)" fill="#fff"/>
          <path id="Path_1030" data-name="Path 1030" d="M146.9,53.059a12.2,12.2,0,0,0,4.217-3.359h.744a10.21,10.21,0,0,0,4.16,3.282l-.477.706c-.592-.305-1.126-.63-1.6-.935v.706h-4.923v-.725a14.5,14.5,0,0,1-1.679,1.011Zm1.2,1.431h6.87v3.091a.742.742,0,0,1-.763.763h-.038v-.382h-5.286v.363H148.1Zm6.068.763h-5.286V57.2h5.286ZM151.5,50.482a13.466,13.466,0,0,1-2.4,2.214h4.79A9.307,9.307,0,0,1,151.5,50.482Z" transform="translate(-137.015 -49.7)" fill="#fff"/>
        </g>
      </g>
    </g>
  </g>
</svg>
