<svg xmlns="http://www.w3.org/2000/svg" width="71.596" height="9.774" viewBox="0 0 71.596 9.774">
  <g id="newmedia_logo_white" transform="translate(0 0)">
    <g id="Group_492" data-name="Group 492" transform="translate(0 0)">
      <rect id="Rectangle_242" data-name="Rectangle 242" width="71.593" height="0.123" transform="translate(0 9.652)" fill="#888"/>
      <g id="Group_490" data-name="Group 490" transform="translate(0.102 0.613)">
        <rect id="Rectangle_243" data-name="Rectangle 243" width="0.102" height="3.313" transform="translate(0 3.17)" fill="#fff"/>
        <rect id="Rectangle_244" data-name="Rectangle 244" width="0.102" height="3.538" transform="translate(0.593 2.945)" fill="#fff"/>
        <rect id="Rectangle_245" data-name="Rectangle 245" width="0.102" height="3.681" transform="translate(1.186 2.802)" fill="#fff"/>
        <rect id="Rectangle_246" data-name="Rectangle 246" width="0.102" height="4.642" transform="translate(1.779 1.84)" fill="#fff"/>
        <rect id="Rectangle_247" data-name="Rectangle 247" width="0.102" height="5.624" transform="translate(2.372 0.859)" fill="#fff"/>
        <rect id="Rectangle_248" data-name="Rectangle 248" width="0.102" height="5.848" transform="translate(2.965 0.634)" fill="#fff"/>
        <rect id="Rectangle_249" data-name="Rectangle 249" width="0.102" height="5.48" transform="translate(3.558 1.002)" fill="#fff"/>
        <rect id="Rectangle_250" data-name="Rectangle 250" width="0.102" height="6.319" transform="translate(4.151 0.164)" fill="#fff"/>
        <rect id="Rectangle_251" data-name="Rectangle 251" width="0.102" height="6.482" transform="translate(4.724)" fill="#fff"/>
        <rect id="Rectangle_252" data-name="Rectangle 252" width="0.102" height="6.176" transform="translate(5.317 0.307)" fill="#fff"/>
        <rect id="Rectangle_253" data-name="Rectangle 253" width="0.102" height="3.17" transform="translate(5.91 3.313)" fill="#fff"/>
        <rect id="Rectangle_254" data-name="Rectangle 254" width="0.102" height="2.781" transform="translate(6.503 3.701)" fill="#fff"/>
        <rect id="Rectangle_255" data-name="Rectangle 255" width="0.102" height="3.026" transform="translate(7.096 3.456)" fill="#fff"/>
        <rect id="Rectangle_256" data-name="Rectangle 256" width="0.102" height="4.151" transform="translate(7.689 2.331)" fill="#fff"/>
        <rect id="Rectangle_257" data-name="Rectangle 257" width="0.102" height="5.215" transform="translate(8.282 1.268)" fill="#fff"/>
        <rect id="Rectangle_258" data-name="Rectangle 258" width="0.102" height="6.094" transform="translate(8.875 0.389)" fill="#fff"/>
        <rect id="Rectangle_259" data-name="Rectangle 259" width="0.102" height="5.746" transform="translate(9.468 0.736)" fill="#fff"/>
        <rect id="Rectangle_260" data-name="Rectangle 260" width="0.102" height="5.378" transform="translate(10.061 1.104)" fill="#fff"/>
        <rect id="Rectangle_261" data-name="Rectangle 261" width="0.102" height="4.315" transform="translate(10.634 2.168)" fill="#fff"/>
        <rect id="Rectangle_262" data-name="Rectangle 262" width="0.102" height="4.703" transform="translate(11.227 1.779)" fill="#fff"/>
        <rect id="Rectangle_263" data-name="Rectangle 263" width="0.102" height="5.276" transform="translate(11.82 1.206)" fill="#fff"/>
        <rect id="Rectangle_264" data-name="Rectangle 264" width="0.102" height="5.91" transform="translate(12.413 0.573)" fill="#fff"/>
        <rect id="Rectangle_265" data-name="Rectangle 265" width="0.102" height="5.746" transform="translate(13.006 0.736)" fill="#fff"/>
        <rect id="Rectangle_266" data-name="Rectangle 266" width="0.102" height="5.951" transform="translate(13.599 0.532)" fill="#fff"/>
        <rect id="Rectangle_267" data-name="Rectangle 267" width="0.102" height="5.153" transform="translate(14.805 1.329)" fill="#fff"/>
        <rect id="Rectangle_268" data-name="Rectangle 268" width="0.102" height="3.435" transform="translate(15.398 3.047)" fill="#fff"/>
        <rect id="Rectangle_269" data-name="Rectangle 269" width="0.102" height="3.824" transform="translate(15.991 2.658)" fill="#fff"/>
        <rect id="Rectangle_270" data-name="Rectangle 270" width="0.102" height="4.069" transform="translate(16.584 2.413)" fill="#fff"/>
        <rect id="Rectangle_271" data-name="Rectangle 271" width="0.102" height="5.399" transform="translate(17.177 1.084)" fill="#fff"/>
        <rect id="Rectangle_272" data-name="Rectangle 272" width="0.102" height="5.603" transform="translate(17.75 0.879)" fill="#fff"/>
        <rect id="Rectangle_273" data-name="Rectangle 273" width="0.102" height="5.726" transform="translate(18.65 0.838)" fill="#fff"/>
        <rect id="Rectangle_274" data-name="Rectangle 274" width="0.102" height="5.767" transform="translate(18.936 0.716)" fill="#fff"/>
        <rect id="Rectangle_275" data-name="Rectangle 275" width="0.102" height="5.399" transform="translate(19.529 1.084)" fill="#fff"/>
        <rect id="Rectangle_276" data-name="Rectangle 276" width="0.102" height="5.153" transform="translate(20.122 1.329)" fill="#fff"/>
        <rect id="Rectangle_277" data-name="Rectangle 277" width="0.102" height="5.501" transform="translate(20.715 0.982)" fill="#fff"/>
        <rect id="Rectangle_278" data-name="Rectangle 278" width="0.102" height="4.213" transform="translate(21.308 2.29)" fill="#fff"/>
        <rect id="Rectangle_279" data-name="Rectangle 279" width="0.102" height="4.376" transform="translate(21.901 2.106)" fill="#fff"/>
        <rect id="Rectangle_280" data-name="Rectangle 280" width="0.102" height="3.354" transform="translate(22.494 3.149)" fill="#fff"/>
        <path id="Path_1031" data-name="Path 1031" d="M79.8,54.1h.1v6.114h-.1Z" transform="translate(-65.608 -53.732)" fill="#fff"/>
        <path id="Path_1032" data-name="Path 1032" d="M11.586,86.754,10.42,85.2H10.4v1.759h.082V85.445L11.647,87h.041V85.241h-.1Z" transform="translate(-10.4 -78.472)" fill="#fff"/>
        <path id="Path_1033" data-name="Path 1033" d="M19.1,86.3h.818v-.082H19.1V85.5H20v-.1H19v1.718h1.043v-.082H19.1Z" transform="translate(-17.241 -78.631)" fill="#fff"/>
        <path id="Path_1034" data-name="Path 1034" d="M26.636,86.734,26.1,85.2h-.02l-.532,1.534-.45-1.493H25L25.532,87h.041l.532-1.534L26.636,87h.02l.532-1.759h-.1Z" transform="translate(-22.014 -78.472)" fill="#fff"/>
        <path id="Path_1035" data-name="Path 1035" d="M41.1,86.222l-.757-1-.02-.02H40.3v1.759h.1V85.466l.675.9h.02l.7-.9v1.493h.1V85.2h-.02Z" transform="translate(-34.186 -78.472)" fill="#fff"/>
        <path id="Path_1036" data-name="Path 1036" d="M50.5,86.3h.818v-.082H50.5V85.5h.9v-.1h-1v1.718h1.043v-.082H50.5Z" transform="translate(-42.22 -78.631)" fill="#fff"/>
        <path id="Path_1037" data-name="Path 1037" d="M57.589,85.4H57.2v1.718h.389a.833.833,0,0,0,.92-.859A.844.844,0,0,0,57.589,85.4Zm0,.1a.759.759,0,1,1,0,1.513h-.266V85.482h.266Z" transform="translate(-47.63 -78.631)" fill="#fff"/>
        <rect id="Rectangle_281" data-name="Rectangle 281" width="0.102" height="1.718" transform="translate(11.227 6.769)" fill="#fff"/>
        <path id="Path_1038" data-name="Path 1038" d="M68.216,85.2H68.2l-.7,1.759h.1l.2-.511h.818l.2.511h.1L68.216,85.2Zm.348,1.166h-.736l.368-.941Z" transform="translate(-55.824 -78.472)" fill="#fff"/>
        <path id="Path_1039" data-name="Path 1039" d="M79.613,86.829a.8.8,0,0,1-.634.307.764.764,0,0,1-.777-.777.747.747,0,0,1,.757-.777.727.727,0,0,1,.593.286h0l.082-.061h0a.844.844,0,0,0-.675-.307.856.856,0,0,0-.859.879.841.841,0,0,0,.879.879.835.835,0,0,0,.7-.348h0l-.061-.082Z" transform="translate(-64.256 -78.711)" fill="#fff"/>
        <path id="Path_1040" data-name="Path 1040" d="M87.6,86.3h.8v-.082h-.8V85.5h.9v-.1h-1v1.718h1.022v-.082H87.6Z" transform="translate(-71.734 -78.631)" fill="#fff"/>
        <path id="Path_1041" data-name="Path 1041" d="M95.486,86.754,94.32,85.2H94.3v1.759h.082V85.445L95.547,87h.041V85.241h-.1Z" transform="translate(-77.143 -78.472)" fill="#fff"/>
        <path id="Path_1042" data-name="Path 1042" d="M102,85.5h.552v1.615h.1V85.5h.532v-.1H102Z" transform="translate(-83.269 -78.631)" fill="#fff"/>
        <path id="Path_1043" data-name="Path 1043" d="M109.323,86.3h.8v-.082h-.8V85.5h.9v-.1H109.2v1.718h1.043v-.082h-.92Z" transform="translate(-88.996 -78.631)" fill="#fff"/>
        <path id="Path_1044" data-name="Path 1044" d="M116.634,86.361a.448.448,0,0,0,.389-.47.474.474,0,0,0-.532-.491H116v1.718h.1v-.757h.409l.47.736h.123Zm-.511-.859h.368a.39.39,0,1,1,0,.777h-.368Z" transform="translate(-94.406 -78.631)" fill="#fff"/>
      </g>
      <g id="Group_491" data-name="Group 491" transform="translate(23.823 0)">
        <path id="Path_1045" data-name="Path 1045" d="M128.752,58.523h-.02a.227.227,0,0,1-.225-.225v-2a.212.212,0,0,0-.389-.123,9.459,9.459,0,0,1-1.227,1.329.217.217,0,0,1-.266.02h0a.221.221,0,0,1-.02-.348,12.464,12.464,0,0,0,1.166-1.186c.184-.245.368-.511.532-.777a.219.219,0,0,0-.184-.327h-1.493a.227.227,0,0,1-.225-.225v-.02a.227.227,0,0,1,.225-.225h1.7a.227.227,0,0,0,.225-.225v-.634a.227.227,0,0,0-.225-.225h-1.656a.227.227,0,0,1-.225-.225v-.02a.227.227,0,0,1,.225-.225h2.454a.225.225,0,0,0,.2-.123,11.83,11.83,0,0,0,.654-1.554.221.221,0,0,1,.286-.143h.02a.225.225,0,0,1,.143.266,9.314,9.314,0,0,1-.47,1.227.22.22,0,0,0,.2.307h.736a.227.227,0,0,1,.225.225v.061a.227.227,0,0,1-.225.225h-1.636a.227.227,0,0,0-.225.225v.634a.227.227,0,0,0,.225.225H130.9a.227.227,0,0,1,.225.225v.02a.227.227,0,0,1-.225.225h-1.35a.118.118,0,0,0-.082.2c.409.47.818.941,1.206,1.431a.207.207,0,0,1-.041.307h0a.2.2,0,0,1-.307-.041c-.286-.389-.613-.8-.982-1.247a.162.162,0,0,0-.286.1v2.658A.44.44,0,0,1,128.752,58.523Zm.143-9.223h.02a.227.227,0,0,1,.225.225v.491a.227.227,0,0,0,.225.225H130.8a.227.227,0,0,1,.225.225h0a.227.227,0,0,1-.225.225h-4.028a.227.227,0,0,1-.225-.225v-.02a.227.227,0,0,1,.225-.225h1.7A.227.227,0,0,0,128.69,50V49.5A.193.193,0,0,1,128.895,49.3Zm-1.268,1.881a11.014,11.014,0,0,1,.348,1.268.2.2,0,0,1-.164.245h-.02a.218.218,0,0,1-.266-.164,8.272,8.272,0,0,0-.327-1.207.221.221,0,0,1,.143-.286h.02A.215.215,0,0,1,127.627,51.181Zm4.785,1.268a.227.227,0,0,0-.225.225v1.779a4.935,4.935,0,0,1-.327,1.84,6.037,6.037,0,0,1-1.1,1.779.228.228,0,0,1-.327.02l-.061-.041a.247.247,0,0,1-.02-.307,5.478,5.478,0,0,0,1.084-1.738,5.377,5.377,0,0,0,.266-1.554V50.118c0-.1.02-.143.1-.143a22.883,22.883,0,0,0,2.822-.307.222.222,0,0,1,.245.143v.02a.212.212,0,0,1-.164.286,19.7,19.7,0,0,1-2.515.286c-.041,0-.061.02-.061.082v1.288a.227.227,0,0,0,.225.225h3.088a.227.227,0,0,1,.225.225v.02a.227.227,0,0,1-.225.225h-.982a.227.227,0,0,0-.225.225V58.42a.227.227,0,0,1-.225.225h-.02a.227.227,0,0,1-.225-.225V52.695a.227.227,0,0,0-.225-.225h-1.125Z" transform="translate(-126.4 -49.3)" fill="#fff"/>
        <path id="Path_1046" data-name="Path 1046" d="M174.045,55.042a.312.312,0,0,1-.061-.327,16.87,16.87,0,0,0,.757-2.822.153.153,0,0,0-.143-.184h-.573a.227.227,0,0,1-.225-.225h0a.227.227,0,0,1,.225-.225h.7a.14.14,0,0,0,.143-.143l.164-1.206a.231.231,0,0,1,.266-.184h0a.222.222,0,0,1,.184.245l-.164,1.1a.153.153,0,0,0,.143.184h1.268c.061,0,.1.041.082.143v.02a12.783,12.783,0,0,1-.9,4.6.159.159,0,0,0,.041.164l.613.532a.248.248,0,0,1,.041.307h0a.23.23,0,0,1-.327.041l-.47-.409a.145.145,0,0,0-.225.041,8.509,8.509,0,0,1-1.37,1.677.219.219,0,0,1-.286.02h0a.222.222,0,0,1-.02-.348,6.792,6.792,0,0,0,1-1.1h0l.368-.593a.188.188,0,0,0-.02-.2Zm2.208-3.333h-.879c-.082,0-.143.041-.143.123a25.709,25.709,0,0,1-.757,2.9.12.12,0,0,0,.061.143l1.043.941.061-.164a10.778,10.778,0,0,0,.511-1.7,17.267,17.267,0,0,0,.245-2.086A.135.135,0,0,0,176.254,51.709Zm.675,3.333h0a.232.232,0,0,1,.225-.245h2.352a.161.161,0,0,0,.164-.164V54a.161.161,0,0,0-.164-.164h-1.472a.2.2,0,0,1-.225-.225V50.993a.161.161,0,0,0-.164-.164h-.613a.227.227,0,0,1-.225-.225h0a.227.227,0,0,1,.225-.225h.613a.161.161,0,0,0,.164-.164v-.491a.227.227,0,0,1,.225-.225h0a.227.227,0,0,1,.225.225v.491a.161.161,0,0,0,.164.164h2.822a.161.161,0,0,0,.164-.164v-.491a.227.227,0,0,1,.225-.225h0a.227.227,0,0,1,.225.225v.491a.161.161,0,0,0,.164.164h.675a.227.227,0,0,1,.225.225h0a.227.227,0,0,1-.225.225h-.675a.161.161,0,0,0-.164.164v2.474a.388.388,0,0,1-.389.389h-1.227a.161.161,0,0,0-.164.164v.634a.161.161,0,0,0,.164.164h2.413a.227.227,0,0,1,.225.225h0a.227.227,0,0,1-.225.225h-2.086a.153.153,0,0,0-.123.245,9.266,9.266,0,0,0,2.393,2.209.21.21,0,0,1,.02.348h0a.245.245,0,0,1-.286.02,17.9,17.9,0,0,1-2.086-1.84c-.286-.266-.389-.061-.389.143v2.127a.227.227,0,0,1-.225.225h0a.227.227,0,0,1-.225-.225V55.962a.067.067,0,0,0-.123-.041,9.734,9.734,0,0,1-2.7,2.27.217.217,0,0,1-.266-.061l-.02-.02a.227.227,0,0,1,.061-.348,9.62,9.62,0,0,0,2.7-2.27.153.153,0,0,0-.123-.245h-2A.206.206,0,0,1,176.929,55.042Zm4.335-4.192h-2.822a.161.161,0,0,0-.164.164v.757a.161.161,0,0,0,.164.164h2.822a.161.161,0,0,0,.164-.164v-.757A.161.161,0,0,0,181.264,50.85Zm-2.986,2.311a.227.227,0,0,0,.225.225h2.679a.227.227,0,0,0,.225-.225v-.634a.161.161,0,0,0-.164-.164h-2.822a.161.161,0,0,0-.164.164v.634Z" transform="translate(-164.107 -49.459)" fill="#fff"/>
        <path id="Path_1047" data-name="Path 1047" d="M222.829,50.693a.388.388,0,0,1,.389-.389h2a.388.388,0,0,1,.389.389v1.963a.227.227,0,0,0,.225.225h.143c.061,0,.082.041.082.143a9.266,9.266,0,0,1-.123,1.022.231.231,0,0,1-.266.184h-.041a.24.24,0,0,1-.184-.225l.041-.573c0-.041,0-.061-.061-.061h-2.29a.271.271,0,0,0-.266.266v.429a.227.227,0,0,1-.225.225h-.02a.227.227,0,0,1-.225-.225V53a.075.075,0,0,1,.082-.082h.307V50.693Zm.47,8.384h0a.232.232,0,0,1-.245-.225V54.476a.323.323,0,0,1,.327-.327h1.943c.082,0,.123.041.123.1v4.315a.463.463,0,0,1-.225.429,1.091,1.091,0,0,1-.757.041.24.24,0,0,1-.184-.225v-.02a.221.221,0,0,1,.286-.2.482.482,0,0,0,.286.02.225.225,0,0,0,.123-.2v-.777a.227.227,0,0,0-.225-.225h-1a.227.227,0,0,0-.225.225v1.227A.227.227,0,0,1,223.3,59.077Zm.409-6.176a.227.227,0,0,0,.225-.225V51.511c0-.061.02-.1.082-.1h.9a.227.227,0,0,0,.225-.225v-.123a.28.28,0,0,0-.286-.286h-1.268a.28.28,0,0,0-.286.286v1.615a.227.227,0,0,0,.225.225Zm1.043,2.658a.227.227,0,0,0,.225-.225v-.7l-.041-.02h-1.391l-.02.02v.7a.227.227,0,0,0,.225.225Zm.225,1.145v-.47a.227.227,0,0,0-.225-.225h-1a.227.227,0,0,0-.225.225v.47a.227.227,0,0,0,.225.225h1A.227.227,0,0,0,224.977,56.705Zm.164-4.028v-.593a.227.227,0,0,0-.225-.225h-.245a.28.28,0,0,0-.286.286v.511a.227.227,0,0,0,.225.225h.307A.2.2,0,0,0,225.14,52.677Zm2.249,4.806a.225.225,0,0,0-.2-.123h-.47a.054.054,0,0,1-.061-.061V55.887a.28.28,0,0,1,.286-.286h3.824a.054.054,0,0,1,.061.061v1.411a.28.28,0,0,1-.286.286h-.164a.2.2,0,0,0-.2.143l-.164.47-.082.225a.228.228,0,0,0,.2.307h.961a.227.227,0,0,1,.225.225v.02a.227.227,0,0,1-.225.225h-4.7a.227.227,0,0,1-.225-.225v-.02a.227.227,0,0,1,.225-.225h1.084a.22.22,0,0,0,.2-.307A3.674,3.674,0,0,0,227.39,57.482Zm3.967-2.781h0a.232.232,0,0,1-.225.245h-4.7a.227.227,0,0,1-.225-.225V54.7a.227.227,0,0,1,.225-.225h4.7A.215.215,0,0,1,231.357,54.7Zm-.532-3.988a.28.28,0,0,1,.286.286v2.74a.054.054,0,0,1-.061.061h-4.54c-.041,0-.041-.02-.041-.061V51a.28.28,0,0,1,.286-.286h.859a.227.227,0,0,0,.225-.225v-.164a.227.227,0,0,1,.225-.225h.02a.227.227,0,0,1,.225.225v.164a.227.227,0,0,0,.225.225h.429a.227.227,0,0,0,.225-.225v-.164a.227.227,0,0,1,.225-.225h.02a.227.227,0,0,1,.225.225v.164a.227.227,0,0,0,.225.225Zm-2.986.675a.227.227,0,0,0-.225-.225h-.675l-.02.02v.593a.227.227,0,0,0,.225.225h.47a.227.227,0,0,0,.225-.225Zm-.225,1.084h-.47a.227.227,0,0,0-.225.225v.613l.02.02h.675a.227.227,0,0,0,.225-.225v-.429A.21.21,0,0,0,227.614,52.472Zm-.47,3.6h0l-.02.8.02.02h3.211l.02-.02v-.777l-.02-.02Zm2.229,2.29.266-.7a.228.228,0,0,0-.2-.307h-1.268a.22.22,0,0,0-.2.307l.286.7a.246.246,0,0,0,.2.143h.736A.247.247,0,0,0,229.373,58.361Zm-.429-7.2h-.429a.227.227,0,0,0-.225.225v.389a.227.227,0,0,0,.225.225h.429a.227.227,0,0,0,.225-.225v-.389A.227.227,0,0,0,228.944,51.163Zm0,1.309h-.429a.227.227,0,0,0-.225.225v.429a.227.227,0,0,0,.225.225h.429a.227.227,0,0,0,.225-.225V52.7A.215.215,0,0,0,228.944,52.472Zm.92-.47h.593a.227.227,0,0,0,.225-.225v-.593l-.02-.02h-.777a.227.227,0,0,0-.225.225v.389A.189.189,0,0,0,229.864,52Zm-.225,1.1a.227.227,0,0,0,.225.225h.777l.02-.02V52.7a.227.227,0,0,0-.225-.225h-.593a.227.227,0,0,0-.225.225v.409Z" transform="translate(-202.769 -49.936)" fill="#fff"/>
        <path id="Path_1048" data-name="Path 1048" d="M271.545,57.453h0a.236.236,0,0,1-.245-.245V52.586a.432.432,0,0,1,.429-.429h3.088a.236.236,0,0,0,.245-.245V50.745a.236.236,0,0,1,.245-.245h0a.236.236,0,0,1,.245.245v1.166a.236.236,0,0,0,.245.245h3.415c.123,0,.184.061.184.164v4.867a.236.236,0,0,1-.245.245h0a.236.236,0,0,1-.245-.245v-.245a.236.236,0,0,0-.245-.245h-2.842a.236.236,0,0,0-.245.245v2.331a.236.236,0,0,1-.245.245h0a.236.236,0,0,1-.245-.245V56.941a.236.236,0,0,0-.245-.245h-2.781a.236.236,0,0,0-.245.245v.245A.286.286,0,0,1,271.545,57.453Zm3.517-1.472V52.872a.236.236,0,0,0-.245-.245h-2.945c-.041,0-.082.02-.061.061V55.98a.236.236,0,0,0,.245.245h2.761A.236.236,0,0,0,275.063,55.98Zm3.844,0V52.954a.323.323,0,0,0-.327-.327h-2.761a.236.236,0,0,0-.245.245V56a.236.236,0,0,0,.245.245h2.842A.268.268,0,0,0,278.907,55.98Z" transform="translate(-241.669 -50.255)" fill="#fff"/>
        <path id="Path_1049" data-name="Path 1049" d="M316.835,52.217a29.023,29.023,0,0,1-.757,5.808.231.231,0,0,1-.266.184h-.041a.231.231,0,0,1-.184-.266,32.469,32.469,0,0,0,.757-5.726.219.219,0,0,1,.245-.225h.041A.224.224,0,0,1,316.835,52.217Zm1.493-1.288a.227.227,0,0,1,.225.225v7.178a.634.634,0,0,0,.021.225c.041.061.123.082.266.082h3.292a.359.359,0,0,0,.307-.123,5.11,5.11,0,0,0,.245-1.963.244.244,0,0,1,.286-.225h0a.266.266,0,0,1,.184.225,4.836,4.836,0,0,1-.286,2.352.656.656,0,0,1-.552.2h-3.64a.519.519,0,0,1-.327-.082.64.64,0,0,1-.225-.593v-7.28a.2.2,0,0,1,.2-.225Zm2.045-.327a27.307,27.307,0,0,1,.941,5.276.211.211,0,0,1-.184.245h-.041a.231.231,0,0,1-.266-.2,29.562,29.562,0,0,0-.92-5.174.224.224,0,0,1,.164-.286h.041A.225.225,0,0,1,320.373,50.6Zm3.088,1.166a30.627,30.627,0,0,1,1.207,5.971.211.211,0,0,1-.184.245h-.041a.231.231,0,0,1-.266-.2,34.389,34.389,0,0,0-1.186-5.889.224.224,0,0,1,.164-.286l.041-.02A.327.327,0,0,1,323.461,51.767Z" transform="translate(-276.898 -50.213)" fill="#fff"/>
      </g>
    </g>
  </g>
</svg>
